<!DOCTYPE svg PUBLIC "-//W3C//DTD SVG 1.1//EN" "http://www.w3.org/Graphics/SVG/1.1/DTD/svg11.dtd">
<!-- Uploaded to: SVG Repo, www.svgrepo.com, Transformed by: SVG Repo Mixer Tools -->
<svg width="800px" height="800px" viewBox="0 0 64 64" xmlns="http://www.w3.org/2000/svg" fill="#2db32d" stroke="#2db32d">
<g id="SVGRepo_bgCarrier" stroke-width="0"/>
<g id="SVGRepo_tracerCarrier" stroke-linecap="round" stroke-linejoin="round"/>
<g id="SVGRepo_iconCarrier"> <defs> <style>.cls-1,.cls-2{fill:none;stroke:#2db32d;stroke-linejoin:round;stroke-width:2px;}.cls-1{stroke-linecap:round;}</style> </defs> <g id="cashback"> <circle cx="9.5" cy="12.5" r="1.0691"/> <line class="cls-1" x1="16" x2="13" y1="5" y2="8"/> <line class="cls-1" x1="13" x2="16" y1="5" y2="8"/> <rect class="cls-1" height="30" width="54" x="6" y="29"/> <path class="cls-1" d="M21,32H14a5,5,0,0,1-5,5v7"/> <path class="cls-1" d="M45,50h7a5,5,0,0,1,5-5V38"/> <circle cx="10" cy="33" r="1"/> <circle cx="57" cy="49" r="1"/> <polyline class="cls-1" points="37 38 31 38 31 41 37 41 37 44 31 44"/> <line class="cls-1" x1="34" x2="34" y1="36" y2="46"/> <path class="cls-1" d="M46,11H22a7,7,0,0,0,0,14H32.5L34,30l1.5-5H46a7,7,0,0,0,0-14Z"/> <path class="cls-1" d="M37,16h7.5A2.5,2.5,0,0,1,47,18.5h0A2.5,2.5,0,0,1,44.5,21h-20A2.5,2.5,0,0,1,22,18.5h0A2.5,2.5,0,0,1,24.5,16H32"/> <polyline class="cls-1" points="40 14 36 16 40 18"/> <line class="cls-1" x1="60" x2="32" y1="56" y2="56"/> <line class="cls-1" x1="29" x2="24" y1="56" y2="56"/> <line class="cls-1" x1="21" x2="9" y1="56" y2="56"/> <line class="cls-2" x1="6" x2="60" y1="53" y2="53"/> </g> </g>
</svg>